<svg width="296" height="169" viewBox="0 0 296 169" fill="none" xmlns="http://www.w3.org/2000/svg">
<path fill-rule="evenodd" clip-rule="evenodd" d="M296 0H0V169H296V0ZM271.895 56.0147C271.895 36.162 254.926 25 224.694 25V25.0824C196.15 25.0824 178.769 36.6562 178.769 54.8202C178.769 65.1173 185.812 72.9842 196.15 72.9842C206.489 72.9842 213.944 64.6642 213.944 54.3672C213.944 44.0701 206.9 37.0269 196.562 37.0269C192.443 37.0269 189.972 38.2626 184.988 41.5576C191.208 33.6907 199.075 29.9838 207.765 29.9838C220.163 29.9838 228.854 40.322 228.854 55.1909C228.854 60.5454 228.03 65.5292 225.971 69.2361C223.458 74.1787 218.927 79.1624 213.12 83.2813C211.914 84.1301 210.366 85.196 208.469 86.5018C205.764 88.364 202.35 90.7142 198.21 93.6195C184.576 103.546 180.005 111.413 180.005 126.282C180.005 132.501 180.416 136.208 182.476 144.899H184.947C183.712 140.368 182.476 134.149 182.476 130.03C182.476 120.968 187.418 113.925 194.462 113.925C199.445 113.925 202.74 116.808 211.019 128.382C213.902 132.913 216.415 136.661 218.886 139.132C224.282 145.352 232.561 148.647 242.075 148.647C255.297 148.647 265.676 142.469 269.383 132.13C271.895 124.675 273.543 113.102 274.367 100.292C274.367 98.7753 274.279 97.599 274.185 96.3292V96.3288V96.3284C274.075 94.8397 273.955 93.2224 273.955 90.7775H272.307V94.4845C272.307 105.646 269.795 108.118 258.633 108.53L244.958 108.941C242.636 109.2 239.166 109.134 234.66 109.049C231.973 108.999 228.918 108.941 225.518 108.941C221.399 108.53 217.239 108.53 213.532 108.53H213.532C193.638 108.53 188.695 110.589 183.3 119.692C184.576 113.102 185.4 110.177 188.695 106.058C191.578 102.722 194.915 99.8389 199.034 97.7795C205.624 94.0314 210.196 92.7957 227.989 89.5007C244.135 86.2056 251.59 83.6931 259.045 79.1624C267.324 73.7668 271.895 65.941 271.895 56.0147ZM108.42 36.162C122.094 35.7501 127.86 35.3382 138.24 33.6907C148.166 32.0432 152.738 30.8075 163.9 26.2356V134.931C163.9 141.974 164.312 142.798 169.296 143.21L173.868 143.622L180.499 144.034V145.681H180.087C165.177 145.269 160.235 145.269 148.209 145.269H148.207H148.206C134.12 145.269 125.018 145.269 108.049 145.681V144.446L114.268 144.034L118.84 143.622C123.412 143.21 124.236 142.386 124.236 135.343V47.324C124.236 40.2808 123.412 39.457 118.84 39.0452L114.268 38.6333L108.461 37.8095V36.162H108.42ZM112.126 56.0147C112.126 36.162 95.1569 25 64.9248 25C36.3814 25 19 36.5739 19 54.7379C19 65.0761 26.0432 72.9842 36.3814 72.9842C46.7196 72.9842 54.1747 64.6642 54.1747 54.3672C54.1747 44.0701 47.1315 37.0269 36.7933 37.0269C32.6745 37.0269 30.2032 38.2626 25.2194 41.5576C31.4388 33.6907 39.3058 29.9838 47.9965 29.9838C60.3941 29.9838 69.0848 40.322 69.0848 55.1909C69.0848 60.5454 68.261 65.5292 66.2016 69.2361C63.6892 74.1787 59.1585 79.1624 53.3509 83.2813C52.1454 84.1302 50.5969 85.1962 48.6997 86.5022C45.9946 88.3643 42.5805 90.7144 38.4408 93.6195C24.8075 103.546 20.2356 111.413 20.2356 126.282C20.2356 132.501 20.6475 136.208 22.7069 144.899H25.2194C23.9838 140.368 22.7481 134.149 22.7481 130.03C22.7481 120.968 27.6907 113.925 34.7339 113.925C39.7176 113.925 43.0127 116.808 51.2915 128.382C54.1747 132.913 56.6872 136.661 59.1585 139.132C64.5541 145.352 72.8329 148.647 82.3474 148.647C95.1569 148.647 105.495 142.469 110.479 131.307C112.95 124.263 114.598 112.69 114.598 100.292C114.598 98.7753 114.51 97.599 114.416 96.3292C114.306 94.8403 114.186 93.2228 114.186 90.7775H112.538V94.4845C112.538 105.646 110.026 108.118 98.8639 108.53L85.1894 108.941C82.8671 109.2 79.3971 109.134 74.8908 109.049C72.2039 108.999 69.1486 108.941 65.7486 108.941C61.6298 108.53 57.4699 108.53 53.763 108.53H53.7628C33.8689 108.53 28.9263 110.589 23.5307 119.692C24.8075 113.102 25.6313 110.177 28.9263 106.058C31.8095 102.722 35.1458 99.8389 39.2646 97.7795C45.8547 94.0314 50.4266 92.7957 68.2199 89.5007C84.3656 86.2056 91.8207 83.6931 99.2757 79.1624C107.555 73.7668 112.126 65.941 112.126 56.0147Z" fill="#C4C4C4"/>
</svg>
